<?xml version="1.0" encoding="UTF-8"?>
<!DOCTYPE svg PUBLIC "-//W3C//DTD SVG 1.1//EN" "http://www.w3.org/Graphics/SVG/1.1/DTD/svg11.dtd">
<!-- Creator: CorelDRAW -->
<svg xmlns="http://www.w3.org/2000/svg" xml:space="preserve" width="2048px" height="2048px" style="shape-rendering:geometricPrecision; text-rendering:geometricPrecision; image-rendering:optimizeQuality; fill-rule:evenodd; clip-rule:evenodd"
viewBox="0 0 2048 2048"
 xmlns:xlink="http://www.w3.org/1999/xlink">
 <defs>
  <style type="text/css">
   <![CDATA[
    .fil2 {fill:none}
    .fil1 {fill:#424242}
    .fil0 {fill:#424242;fill-rule:nonzero}
   ]]>
  </style>
 </defs>
 <g id="Layer_x0020_1">
  <metadata id="CorelCorpID_0Corel-Layer"/>
  <g id="_326850896">
   <path id="_326850968" class="fil0" d="M288.063 1266.54l623 0c17.6728,0 32.0008,14.328 32.0008,32.0008l0 325.001c0,17.6728 -14.328,32.0008 -32.0008,32.0008l-107.623 0 -103.104 103.106 0.00236221 0.00236221c-12.4961,12.4961 -32.7591,12.4961 -45.2552,0l-0.177165 -0.18189 -102.926 -102.926 -263.916 0c-17.6728,0 -32.0008,-14.328 -32.0008,-32.0008l0 -325.001c0,-17.6728 14.328,-32.0008 32.0008,-32.0008zm135.7 223.896c-13.2543,0 -24,10.7457 -24,24 0,13.2543 10.7457,24 24,24l351.599 0c13.2543,0 24,-10.7457 24,-24 0,-13.2543 -10.7457,-24 -24,-24l-351.599 0zm0 -106.789c-13.2543,0 -24,10.7457 -24,24 0,13.2543 10.7457,24 24,24l351.599 0c13.2543,0 24,-10.7457 24,-24 0,-13.2543 -10.7457,-24 -24,-24l-351.599 0z"/>
   <path id="_326851376" class="fil1" d="M1259.62 688.313c-0.17126,-5.99528 -0.340158,-12.0177 -0.340158,-18.0154 0,-22.0807 2.85118,-44.6528 10.8579,-65.3422 6.02245,-15.5646 15.0957,-29.7614 25.7292,-42.567 12.4075,-14.9421 29.276,-29.6705 43.8248,-42.5457 11.2347,-9.94253 28.767,-25.8189 36.3036,-38.9032 4.77166,-8.28544 6.97678,-17.2429 6.97678,-26.7992 0,-19.4658 -7.95473,-35.1721 -21.8232,-48.6508 -15.1394,-14.713 -33.2563,-21.3685 -54.3083,-21.3685 -19.715,0 -37.0536,5.62323 -51.5386,19.1457 -17.0788,15.9425 -24.4973,41.7969 -28.0087,64.1375l-2.39528 15.2386 -91.4764 -10.9701 1.95 -15.9213c5.25,-42.8575 20.6811,-83.1674 53.6292,-112.287 32.6847,-28.8862 73.9312,-39.463 116.841,-39.463 45.2067,0 88.5331,11.2784 122.484,42.3095 30.4666,27.8469 46.8804,62.5477 46.8804,103.941 0,23.139 -5.43189,45.137 -16.6914,65.3516 -13.9063,24.9697 -39.3662,49.4977 -60.6012,68.315 -7.82481,6.93426 -15.6095,14.0209 -23.002,21.4169 -4.12914,4.13032 -8.69292,8.7815 -12.1441,13.5024 -4.94055,6.75709 -8.2878,14.3882 -10.4835,22.441 -3.67323,13.4669 -4.06536,32.9575 -4.32874,46.8815l-0.297638 15.6969 -87.5942 0 -0.442914 -15.5433zm-3.56339 133.123l0 -98.7898 98.6788 0 0 98.7898 -98.6788 0z"/>
   <path id="_326851160" class="fil0" d="M676.537 1134.86l-267.203 -63.5186 7.37481 -31.1256 -7.40079 31.1327c-14.8784,-3.53622 -24.8362,-16.9335 -24.6,-31.6193l0 -196.223c-61.1067,-58.3382 -100.083,-129.233 -117.643,-201.118 -15.8055,-64.7056 -14.3055,-130.336 3.95906,-188.6 18.652,-59.5016 54.6945,-111.423 107.6,-147.292 46.663,-31.637 105.853,-50.4449 177.007,-50.4449 25.1197,0 49.0418,1.95709 71.7024,5.73308 75.3603,12.5575 133.613,45.4252 173.395,93.6898 39.7205,48.1902 60.228,110.789 60.228,182.973 0,18.6898 -1.42205,38.2264 -4.28977,58.5178l71.7827 118.597 0.0307087 -0.0188977c9.15119,15.1181 4.31221,34.7941 -10.8059,43.9453 -5.27599,3.1937 -11.1059,4.68071 -16.8508,4.6252l-30.6827 0c0.589371,10.5236 1.21181,20.7319 1.79882,30.3461 2.06103,33.7418 3.67796,60.2256 2.24882,81.9662 -5.19449,78.9697 -35.6303,96.4891 -151.631,91.4918l-5.63859 137.335 -31.8756 -1.24961 31.9736 1.31221c-0.724016,17.6575 -15.6284,31.3855 -33.2859,30.6614 -2.48622,-0.101575 -4.89331,-0.485433 -7.1941,-1.11732z"/>
   <path id="_326850848" class="fil0" d="M1631.42 1696.16l7.37481 31.1256 -267.203 63.5186c-2.30079,0.63189 -4.70788,1.01575 -7.1941,1.11732 -17.6575,0.724016 -32.5618,-13.0039 -33.2859,-30.6614l31.9736 -1.31221 -31.8756 1.24961 -5.63859 -137.335c-116.001,4.99725 -146.437,-12.5221 -151.631,-91.4918 -1.42913,-21.7406 0.187795,-48.2244 2.24882,-81.9662 0.587008,-9.61418 1.20945,-19.8225 1.79882,-30.3461l-30.6827 0c-5.74489,0.0555119 -11.5748,-1.4315 -16.8508,-4.6252 -15.1181,-9.15119 -19.9571,-28.8272 -10.8059,-43.9453l0.0307087 0.0188977 71.7827 -118.597c-2.86772,-20.2914 -4.28977,-39.828 -4.28977,-58.5178 0,-72.1843 20.5075,-134.783 60.228,-182.973 39.7819,-48.2646 98.0351,-81.1323 173.395,-93.6898 22.6606,-3.77599 46.5827,-5.73308 71.7024,-5.73308 71.1544,0 130.344,18.8079 177.007,50.4449 52.9052,35.8689 88.9477,87.7902 107.6,147.292 18.2646,58.2638 19.7646,123.894 3.95906,188.6 -17.5595,71.8855 -56.5359,142.78 -117.643,201.118l0 196.223c0.236221,14.6858 -9.72166,28.0831 -24.6,31.6193l-7.40079 -31.1327z"/>
  </g>
 </g>
 <rect class="fil2" width="2048" height="2048"/>
</svg>
